HIERARCHY
ROOT Hips
{
	OFFSET 0.00000 0.00000 0.00000
	CHANNELS 6 Xposition Yposition Zposition Zrotation Yrotation Xrotation 
	JOINT LHipJoint
	{
		OFFSET 0 0 0
		CHANNELS 3 Zrotation Yrotation Xrotation
		JOINT LeftUpLeg
		{
			OFFSET 1.77779 -1.88989 0.48267
			CHANNELS 3 Zrotation Yrotation Xrotation
			JOINT LeftLeg
			{
				OFFSET 2.53442 -6.96327 0.00000
				CHANNELS 3 Zrotation Yrotation Xrotation
				JOINT LeftFoot
				{
					OFFSET 2.71068 -7.44755 0.00000
					CHANNELS 3 Zrotation Yrotation Xrotation
					JOINT LeftToeBase
					{
						OFFSET 0.17992 -0.49431 2.22524
						CHANNELS 3 Zrotation Yrotation Xrotation
						End Site
						{
							OFFSET 0.00000 -0.00000 1.14687
						}
					}
				}
			}
		}
	}
	JOINT RHipJoint
	{
		OFFSET 0 0 0
		CHANNELS 3 Zrotation Yrotation Xrotation
		JOINT RightUpLeg
		{
			OFFSET -1.58469 -1.88989 0.48267
			CHANNELS 3 Zrotation Yrotation Xrotation
			JOINT RightLeg
			{
				OFFSET -2.60386 -7.15404 0.00000
				CHANNELS 3 Zrotation Yrotation Xrotation
				JOINT RightFoot
				{
					OFFSET -2.73334 -7.50979 0.00000
					CHANNELS 3 Zrotation Yrotation Xrotation
					JOINT RightToeBase
					{
						OFFSET -0.25618 -0.70384 2.21822
						CHANNELS 3 Zrotation Yrotation Xrotation
						End Site
						{
							OFFSET -0.00000 -0.00000 1.16381
						}
					}
				}
			}
		}
	}
	JOINT LowerBack
	{
		OFFSET 0 0 0
		CHANNELS 3 Zrotation Yrotation Xrotation
		JOINT Spine
		{
			OFFSET 0.03410 2.01612 -0.22230
			CHANNELS 3 Zrotation Yrotation Xrotation
			JOINT Spine1
			{
				OFFSET 0.03465 2.03012 0.00937
				CHANNELS 3 Zrotation Yrotation Xrotation
				JOINT Neck
				{
					OFFSET 0 0 0
					CHANNELS 3 Zrotation Yrotation Xrotation
					JOINT Neck1
					{
						OFFSET -0.00219 1.70459 0.20857
						CHANNELS 3 Zrotation Yrotation Xrotation
						JOINT Head
						{
							OFFSET 0.02518 1.72339 -0.22179
							CHANNELS 3 Zrotation Yrotation Xrotation
							End Site
							{
								OFFSET 0.00282 1.74122 -0.09823
							}
						}
					}
				}
				JOINT LeftShoulder
				{
					OFFSET 0 0 0
					CHANNELS 3 Zrotation Yrotation Xrotation
					JOINT LeftArm
					{
						OFFSET 3.36358 1.00547 -0.37661
						CHANNELS 3 Zrotation Yrotation Xrotation
						JOINT LeftForeArm
						{
							OFFSET 5.06507 -0.00000 0.00000
							CHANNELS 3 Zrotation Yrotation Xrotation
							JOINT LeftHand
							{
								OFFSET 3.60196 -0.00000 0.00000
								CHANNELS 3 Zrotation Yrotation Xrotation
								JOINT LeftFingerBase
								{
									OFFSET 0 0 0
									CHANNELS 3 Zrotation Yrotation Xrotation
									JOINT LeftHandIndex1
									{
										OFFSET 0.45035 -0.00000 0.00000
										CHANNELS 3 Zrotation Yrotation Xrotation
										End Site
										{
											OFFSET 0.36308 -0.00000 0.00000
										}
									}
								}
								JOINT LThumb
								{
									OFFSET 0 0 0
									CHANNELS 3 Zrotation Yrotation Xrotation
									End Site
									{
										OFFSET 0.36862 -0.00000 0.36862
									}
								}
							}
						}
					}
				}
				JOINT RightShoulder
				{
					OFFSET 0 0 0
					CHANNELS 3 Zrotation Yrotation Xrotation
					JOINT RightArm
					{
						OFFSET -3.50159 0.80383 -0.71526
						CHANNELS 3 Zrotation Yrotation Xrotation
						JOINT RightForeArm
						{
							OFFSET -5.36394 -0.00000 0.00000
							CHANNELS 3 Zrotation Yrotation Xrotation
							JOINT RightHand
							{
								OFFSET -3.58035 -0.00000 0.00000
								CHANNELS 3 Zrotation Yrotation Xrotation
								JOINT RightFingerBase
								{
									OFFSET 0 0 0
									CHANNELS 3 Zrotation Yrotation Xrotation
									JOINT RightHandIndex1
									{
										OFFSET -0.66375 -0.00000 0.00000
										CHANNELS 3 Zrotation Yrotation Xrotation
										End Site
										{
											OFFSET -0.53513 -0.00000 0.00000
										}
									}
								}
								JOINT RThumb
								{
									OFFSET 0 0 0
									CHANNELS 3 Zrotation Yrotation Xrotation
									End Site
									{
										OFFSET -0.54330 -0.00000 0.54330
									}
								}
							}
						}
					}
				}
			}
		}
	}
}
MOTION
Frames: 5
Frame Time: .0083333
0.5909 17.8110 4.9284 1.6169 1.7490 -1.7213 0.0000 0.0000 0.0000 -25.8966 3.6577 14.9012 0.5977 4.9494 13.7642 0.4471 -11.2400 -13.3352 0.0344 -1.1966 -3.2898 0.0000 0.0000 0.0000 17.6379 12.1181 -26.1950 -1.1190 -6.7197 18.8876 -0.2219 -6.3261 -13.4022 -0.0271 1.0618 -2.9190 -4.3585 -1.7969 10.6070 1.9732 -2.8136 -0.1735 4.9691 -1.2272 -5.8283 -1.9891 -2.6713 -17.6940 -1.0058 -2.9241 21.4167 -0.4142 -1.6411 9.7290 -0.0000 -0.0000 0.0000 -79.8442 -10.2367 33.5939 17.8898 -28.0159 -4.4974 -0.0000 0.0000 -9.0927 31.6206 19.7277 11.7406 -7.1250 0.0000 -0.0000 3.3961 52.7851 0.6512 -0.0000 -0.0000 0.0000 89.3510 -2.8399 4.5663 -13.0464 21.3552 -2.4702 0.0000 0.0000 6.5994 -16.7744 21.2619 -6.2382 7.1250 -0.0000 -0.0000 7.5365 -8.0187 6.4692
0.5770 17.7852 5.1369 1.6488 1.9376 -1.8996 0.0000 0.0000 0.0000 -25.8352 3.4435 15.2126 0.6662 5.2198 14.5365 0.3242 -12.3230 -12.4972 0.0109 -0.6743 -1.8530 0.0000 0.0000 0.0000 17.8899 11.8510 -26.1879 -1.2905 -7.1981 20.3035 -0.2751 -5.8386 -13.7596 -0.0148 0.7863 -2.1610 -4.3564 -1.8386 10.4666 1.9215 -2.8642 -0.0059 4.9068 -1.2652 -5.5685 -1.9784 -2.6814 -17.7531 -0.9130 -2.9621 21.2026 -0.3873 -1.6460 9.6656 -0.0000 0.0000 0.0000 -79.8285 -10.2491 33.6387 18.0021 -28.1599 -4.5502 -0.0000 0.0000 -9.5741 32.4751 17.2908 10.7120 -7.1250 0.0000 -0.0000 4.5614 50.1784 0.5833 -0.0000 0.0000 0.0000 89.4588 -2.8326 4.1992 -12.9134 21.1601 -2.4219 0.0000 0.0000 6.8168 -16.8577 24.5270 -7.1695 7.1250 -0.0000 -0.0000 7.6945 -4.6842 7.1061
0.5585 17.7756 5.3442 1.4471 2.1556 -2.0556 0.0000 0.0000 0.0000 -25.4945 3.3411 15.7967 0.7578 5.5595 15.5116 0.2873 -12.8509 -12.3595 0.0385 -1.2667 -3.4830 0.0000 0.0000 0.0000 18.3950 11.6044 -26.0489 -1.4585 -7.6330 21.6047 -0.3326 -5.0486 -13.9292 -0.0371 1.2438 -3.4199 -4.1077 -1.8833 10.3595 1.9232 -2.8886 0.0583 4.7629 -1.2893 -5.4494 -2.0975 -2.6795 -17.5142 -0.7069 -2.9818 20.9123 -0.2921 -1.6401 9.5249 -0.0000 0.0000 0.0000 -79.8405 -10.0359 33.7671 18.2148 -28.4313 -4.6510 -0.0000 0.0000 -10.0356 33.9410 13.6193 9.0050 -7.1250 0.0000 -0.0000 6.2106 46.1660 0.1794 -0.0000 0.0000 0.0000 89.5803 -2.8768 3.5774 -12.7455 20.9131 -2.3617 0.0000 0.0000 7.4399 -17.7095 26.8708 -8.2127 7.1250 -0.0000 -0.0000 7.3717 -2.1729 7.1469
0.5353 17.7609 5.5471 1.3125 2.2799 -2.0765 0.0000 0.0000 0.0000 -25.2237 3.1995 16.0854 0.8486 5.8755 16.4237 0.2372 -13.0014 -11.9020 0.0464 -1.3896 -3.8215 0.0000 0.0000 0.0000 18.7593 11.6588 -25.8621 -1.6024 -7.9834 22.6638 -0.3503 -4.1312 -13.4731 -0.0485 1.4208 -3.9074 -4.1036 -1.9458 10.1448 1.9932 -2.9595 0.0995 4.8313 -1.3303 -5.2739 -2.2252 -2.6859 -17.5983 -0.5905 -2.9802 20.9154 -0.2318 -1.6360 9.5458 0.0000 -0.0000 0.0000 -79.9113 -9.8419 33.5950 18.4378 -28.7141 -4.7577 -0.0000 0.0000 -10.2995 34.6857 11.8530 8.0904 -7.1250 0.0000 -0.0000 6.9314 44.1876 -0.1397 0.0000 -0.0000 0.0000 89.5307 -2.6219 3.0009 -12.3675 20.3535 -2.2285 0.0000 0.0000 8.1185 -17.2333 27.0473 -8.0287 7.1250 -0.0000 -0.0000 7.6724 -2.0715 7.4579
0.5105 17.7478 5.7549 1.4523 2.4026 -2.1071 0.0000 0.0000 0.0000 -25.1906 3.2331 16.4307 0.9496 6.2059 17.3829 0.3190 -11.8743 -12.2361 0.2510 -3.2237 -8.9021 0.0000 0.0000 0.0000 18.8462 11.6574 -25.4875 -1.7006 -8.2125 23.3615 -0.3339 -3.2599 -12.6092 -0.0217 0.9520 -2.6166 -4.3899 -2.0270 9.9355 1.9944 -3.0922 0.1832 4.9976 -1.3985 -5.0386 -2.1728 -2.6356 -17.7776 -0.6624 -2.9022 20.8338 -0.2567 -1.6033 9.5475 0.0000 -0.0000 0.0000 -79.9912 -9.7402 33.2346 18.5354 -28.8373 -4.8047 -0.0000 0.0000 -10.4100 34.3976 11.4153 7.7169 -7.1250 0.0000 -0.0000 6.6597 43.6299 -0.2262 0.0000 -0.0000 0.0000 89.5193 -2.1744 2.1399 -11.8794 19.6235 -2.0616 0.0000 0.0000 9.0971 -16.8299 27.4551 -7.9394 7.1250 -0.0000 -0.0000 7.9492 -1.7243 7.7823
